<svg width="24" height="24" viewBox="0 0 24 24" fill="none" xmlns="http://www.w3.org/2000/svg">
  <defs>
    <linearGradient id="grad1" x1="0%" y1="0%" x2="100%" y2="100%">
      <stop offset="0%" style="stop-color:#ff6f61;stop-opacity:1" />
      <stop offset="100%" style="stop-color:#6b7280;stop-opacity:1" />
    </linearGradient>
    <linearGradient id="grad2" x1="0%" y1="0%" x2="100%" y2="100%">
      <stop offset="0%" style="stop-color:#34d399;stop-opacity:1" />
      <stop offset="100%" style="stop-color:#059669;stop-opacity:1" />
    </linearGradient>
    <filter id="glow" x="-50%" y="-50%" width="200%" height="200%">
      <feGaussianBlur in="SourceGraphic" stdDeviation="0.5" result="blur"/>
      <feMerge>
        <feMergeNode in="blur"/>
        <feMergeNode in="SourceGraphic"/>
      </feMerge>
    </filter>
  </defs>
  <g clip-path="url(#clip0)">
    <!-- Browser Window -->
    <rect x="4" y="4" width="16" height="12" rx="2" fill="url(#grad1)" stroke="#1f2937" stroke-width="0.5"/>
    <rect x="4" y="4" width="16" height="2" fill="#1f2937"/>
    <circle cx="6" cy="5" r="0.5" fill="#f87171"/>
    <circle cx="8" cy="5" r="0.5" fill="#facc15"/>
    <circle cx="10" cy="5" r="0.5" fill="#4ade80"/>
    <!-- Code Brackets -->
    <path d="M8 8 L7 9.5 L8 11" fill="none" stroke="url(#grad2)" stroke-width="1" stroke-linecap="round">
      <animateTransform
        attributeName="transform"
        type="translate"
        values="0,0;0,1;0,0"
        dur="2s"
        repeatCount="indefinite"/>
    </path>
    <path d="M16 8 L17 9.5 L16 11" fill="none" stroke="url(#grad2)" stroke-width="1" stroke-linecap="round">
      <animateTransform
        attributeName="transform"
        type="translate"
        values="0,0;0,1;0,0"
        dur="2s"
        repeatCount="indefinite"/>
    </path>
    <!-- Responsive Design Nodes -->
    <circle cx="12" cy="18" r="2" fill="url(#grad2)" filter="url(#glow)"/>
    <circle cx="8" cy="20" r="1" fill="url(#grad2)"/>
    <circle cx="16" cy="20" r="1" fill="url(#grad2)"/>
    <line x1="8" y1="20" x2="12" y2="18" stroke="url(#grad2)" stroke-width="0.5"/>
    <line x1="16" y1="20" x2="12" y2="18" stroke="url(#grad2)" stroke-width="0.5"/>
  </g>
  <defs>
    <clipPath id="clip0">
      <rect width="24" height="24" fill="white"/>
    </clipPath>
  </defs>
</svg>